<svg xml:space="preserve" id="epitkit_svg__svg64" width="928.22" height="1071.82" version="1.1" xmlns="http://www.w3.org/2000/svg">
  <style id="style2">
    .epitkit_svg__st0{fill:#fff}.epitkit_svg__st2{fill:#22a5bb}.epitkit_svg__st3{fill:#0f1e2d}.epitkit_svg__st6{fill:#156c9f}
  </style>
  <g id="epitkit_svg__Diseño" transform="translate(-75.89 -4.44)">
    <path id="epitkit_svg__path4" d="M540 1058.94 90.74 799.56V280.79L540 21.41l449.26 259.38v518.76z" class="epitkit_svg__st0"/>
    <path id="epitkit_svg__path6" d="M994.41 802.36V277.64L540 15.29 85.59 277.64v524.72L540 1064.71Z" style="opacity:.3;fill:#94d7e0"/>
    <path id="epitkit_svg__path8" d="M750.45 245.55H691.6c-2.87 0-5.22-2.35-5.22-5.22v-11.29c0-2.87 2.35-5.22 5.22-5.22h58.85c2.87 0 5.22 2.35 5.22 5.22v11.29c0 2.87-2.35 5.22-5.22 5.22zm-353.35 0h-58.85c-2.87 0-5.22-2.35-5.22-5.22v-11.29c0-2.87 2.35-5.22 5.22-5.22h58.85c2.87 0 5.22 2.35 5.22 5.22v11.29c0 2.87-2.35 5.22-5.22 5.22z" class="epitkit_svg__st2"/>
    <path id="epitkit_svg__path10" d="M750.46 220.32h-58.88c-4.8 0-8.7 3.9-8.7 8.7v11.32c0 4.8 3.9 8.7 8.7 8.7h58.88c4.8 0 8.7-3.9 8.7-8.7v-11.32c0-4.79-3.9-8.7-8.7-8.7zm1.71 8.7v11.32c0 .94-.77 1.71-1.71 1.71h-58.88c-.94 0-1.71-.77-1.71-1.71v-11.32c0-.94.77-1.71 1.71-1.71h58.88c.94 0 1.71.77 1.71 1.71zm-355.06-8.7h-58.88c-4.8 0-8.7 3.9-8.7 8.7v11.32c0 4.8 3.9 8.7 8.7 8.7h58.88c4.8 0 8.7-3.9 8.7-8.7v-11.32c0-4.79-3.9-8.7-8.7-8.7zm1.71 8.7v11.32c0 .94-.77 1.71-1.71 1.71h-58.88c-.94 0-1.71-.77-1.71-1.71v-11.32c0-.94.77-1.71 1.71-1.71h58.88c.94 0 1.71.77 1.71 1.71z" class="epitkit_svg__st3"/>
    <path id="epitkit_svg__path12" d="M634.66 143.7H454.84s-15.77 1.97-15.77 17.09v80.84h30.23v-54.55s-.73-13.8 9.82-14.46v-.07h131.26v.07c10.55.66 9.82 14.46 9.82 14.46v54.55h30.23v-80.84c0-15.12-15.77-17.09-15.77-17.09z" class="epitkit_svg__st2"/>
    <path id="epitkit_svg__path14" d="m635.1 140.22-.09-.01-180.26-.01-.34.02c-6.52.81-18.84 6.16-18.84 20.56v84.34h37.23v-58.23c-.02-.42-.46-10.34 6.6-10.79l.62-.06h129l1.15.07c6.97.43 6.56 10.36 6.54 10.86v58.16h37.23v-84.34c0-14.41-12.32-19.75-18.84-20.57zm-156.04 28.82-3.44.13v.54c-3.52 1.09-6.27 3.63-7.97 7.4-1.32 2.92-2.01 6.69-1.85 10.01v51h-23.23v-77.34c0-11.14 10.82-13.31 12.53-13.59h179.32c1.71.27 12.53 2.46 12.53 13.59v77.34h-23.23v-50.93c.17-3.39-.52-7.16-1.85-10.09-1.71-3.77-4.45-6.31-7.97-7.4v-.67z" class="epitkit_svg__st3"/>
    <path id="epitkit_svg__path16" d="M781.74 561.96H307.76c-6.6 0-12-5.4-12-12v-297.4c0-6.6 5.4-12 12-12h473.98c6.6 0 12 5.4 12 12v297.4c0 6.6-5.4 12-12 12z" class="epitkit_svg__st2"/>
    <path id="epitkit_svg__path18" d="M781.77 237.06H307.73c-8.53 0-15.46 6.94-15.46 15.46v297.47c0 8.53 6.94 15.46 15.46 15.46h474.04c8.53 0 15.46-6.94 15.46-15.46V252.53c.01-8.53-6.93-15.47-15.46-15.47zm8.48 15.47V550c0 4.67-3.8 8.47-8.47 8.47H307.73c-4.67 0-8.47-3.8-8.47-8.47V252.53c0-4.67 3.8-8.47 8.47-8.47h474.04c4.68-.01 8.48 3.79 8.48 8.47z" class="epitkit_svg__st3"/>
    <path id="epitkit_svg__path20" d="M544.37 395.63c-142.91 0-256.19-85.17-256.19-91.75v-51.35c0-6.58 5.39-11.97 11.97-11.97H788.6c6.58 0 11.97 5.39 11.97 11.97v51.35c-.01 6.58-113.29 91.75-256.2 91.75z" class="epitkit_svg__st2"/>
    <path id="epitkit_svg__path22" d="M788.59 237.06H300.14c-8.53 0-15.46 6.94-15.46 15.46v51.35c0 1.27 0 5.12 21.44 19.99 10.96 7.6 29.41 19.23 55.05 31.51 41.68 19.96 107.29 43.75 183.2 43.75 75.9 0 141.52-23.79 183.2-43.75 25.65-12.28 44.1-23.92 55.05-31.51 21.44-14.86 21.44-18.72 21.44-19.99v-51.35c0-8.52-6.94-15.46-15.47-15.46zm8.48 15.47v50.67c-2.65 3.61-27.65 24.7-74.86 46.98-40.55 19.14-104.32 41.95-177.84 41.95-73.52 0-137.29-22.81-177.84-41.95-47.2-22.28-72.21-43.37-74.86-46.98v-50.67c0-4.67 3.8-8.47 8.47-8.47h488.45c4.68-.01 8.48 3.79 8.48 8.47z" class="epitkit_svg__st3"/>
    <path id="epitkit_svg__path24" d="M556.01 381.83v27.61c0 2.87-2.35 5.22-5.22 5.22h-12.84c-2.87 0-5.22-2.35-5.22-5.22v-27.61c0-2.87 2.35-5.22 5.22-5.22h12.84c2.87 0 5.22 2.35 5.22 5.22z" class="epitkit_svg__st2"/>
    <path id="epitkit_svg__path26" d="M550.8 373.11h-12.87c-4.8 0-8.7 3.9-8.7 8.7v27.64c0 4.8 3.9 8.7 8.7 8.7h12.87c4.8 0 8.7-3.9 8.7-8.7v-27.64c0-4.8-3.9-8.7-8.7-8.7zm1.71 8.7v27.64c0 .94-.77 1.71-1.71 1.71h-12.87c-.94 0-1.71-.77-1.71-1.71v-27.64c0-.94.77-1.71 1.71-1.71h12.87c.94 0 1.71.77 1.71 1.71z" class="epitkit_svg__st3"/>
    <path id="epitkit_svg__path28" d="M899.61 668.66v-19.11h-85.14v19.11l-34.6-42.46H659.24l-25.78 37.46v-85.08H535.6v56.78H356.8v37.49c-9.4-4-20.05-6.16-31.7-6.16-6.83 0-13.23.67-19.17 1.97h-77.39v5.61c-11.19-4.9-24.19-7.58-38.6-7.58-23.2 0-43.42 7.36-58.46 21.29-15.55 14.39-24.11 34.97-24.11 57.93 0 31.56 13.57 49.92 24.95 59.78 14.54 12.59 34.67 19.24 58.21 19.24 13.94 0 26.79-2.32 38.01-6.77v38.29h85.14v-32.41c3.98.58 8.12.88 12.4.88 11.26 0 21.58-2.06 30.72-5.9v3.93h276.65v-36.56l25.25 36.56h117.62l-6.74-9.69s68.46-2.2 71-.56c10.48 6.81 23.46 10.25 38.73 10.25h52.23v-154.3h-31.93z" class="epitkit_svg__st0"/>
    <path id="epitkit_svg__path30" d="M135.17 745.91c0-31.53 22.26-51.42 54.77-51.42 32.31 0 53.79 16.94 53.79 47.88 0 3.55-.39 6.11-.79 9.46h-80.39c.79 15.17 7.88 21.67 26.99 21.67 17.54 0 23.64-4.53 23.64-13v-1.97h29.55v2.17c0 21.47-20.89 36.45-52.21 36.45-32.89-.01-55.35-16.17-55.35-51.24zm27.78-9.66h52.41c-.79-13-8.67-18.72-26.01-18.72-17.53.01-25.02 5.92-26.4 18.72zm93.39 92.41v-132.2h27.39v26.99h1.97c3.55-18.91 16.16-28.96 39.41-28.96 30.34 0 47.29 20.1 47.29 51.42 0 31.33-16.55 51.22-46.3 51.22-22.85 0-35.46-11.23-38.81-28.57h-1.38v60.09h-29.57zm58.32-58.52c18.91 0 27.78-6.31 27.78-24.23 0-18.13-8.87-24.24-27.58-24.24-19.11 0-28.96 6.5-28.96 24.04v1.58c-.01 16.94 10.24 22.85 28.76 22.85zm69.94-83.73v-23.25h29.55v23.25zm0 108.76v-98.71h29.55v98.71zm180.34 0V606.38h42.26v100.03h32.12L675.4 654h50.16L674 722.19l50.72 72.98h-49.87l-35.22-51h-32.4v51zm315.91 0c-23.05 0-37.04-10.84-37.04-35.66v-38.62h-15.56v-24.43h15.56v-19.11h29.55v19.11h31.92v24.43h-31.92v35.27c0 9.85 3.74 12.41 14.19 12.41h17.73v26.6zm-404.77 0v-102.9h-47.89v-25.96h124.63v25.96h-47.89v102.9zm337.5 3.72-67.08.83 3.96-240.25 53.23-.66z" class="epitkit_svg__st3"/>
    <path id="epitkit_svg__path32" d="m819.59 804.44-78.96.98 4.15-251.52 64.43-.8zm-67.22-10.43 55.19-.68-9.4-228.82-42.03.52z" class="epitkit_svg__st2"/>
    <circle id="epitkit_svg__circle34" cx="770.1" cy="425.72" r="130.71" class="epitkit_svg__st3"/>
    <path id="epitkit_svg__path36" d="M770.07 558.92c-72.67 0-132.25-58.64-133.17-131.52-.93-73.44 58.06-133.95 131.51-134.89.57-.01 1.15-.01 1.72-.01 72.67 0 132.25 58.64 133.17 131.52.93 73.44-58.06 133.95-131.51 134.89-.57.01-1.15.01-1.72.01zm.05-261.41c-.55 0-1.1 0-1.65.01-70.69.9-127.47 59.13-126.57 129.82.89 70.14 58.23 126.58 128.17 126.58.55 0 1.1 0 1.65-.01 70.69-.9 127.47-59.13 126.57-129.82-.89-70.14-58.23-126.58-128.17-126.58Z" class="epitkit_svg__st2"/>
    <path id="epitkit_svg__path38" d="M887.09 424.23c-.4-31.25-12.94-60.47-35.32-82.29-22.38-21.82-51.9-33.59-83.16-33.22-31.25.4-60.47 12.94-82.29 35.32-21.82 22.38-33.61 51.91-33.22 83.16.4 31.25 12.94 60.47 35.32 82.29 22.01 21.46 50.95 33.23 81.63 33.23.51 0 1.02 0 1.53-.01 31.25-.4 60.47-12.94 82.29-35.32 21.82-22.38 33.61-51.91 33.22-83.16z" class="epitkit_svg__st2"/>
    <circle id="epitkit_svg__circle40" cx="770.1" cy="425.72" r="111.88" class="epitkit_svg__st0"/>
    <path id="epitkit_svg__path42" d="m866.84 475-1.5-.08c-48.99-2.68-65.73-6.26-88.88-13.98l-.23-.08c-20.54-6.85-33.84-25.02-43.55-38.28-4.11-5.62-9.23-12.61-11.32-12.61-2.45 0-4.3 1.07-5.64 3.26-1.08 1.77-1.39 3.56-1.4 3.58l-.03.14c-.3 1.38-7.24 33.57-11.38 46.57-2.02 6.35-6.57 10.68-13.16 12.53-2.79.78-5.37.95-7.04.95-1.32 0-2.11-.1-2.14-.1l-1.48-.19.64-5.47 1.52.21s3.37.35 7.09-.7c4.75-1.35 7.89-4.34 9.34-8.89 4.11-12.88 11.17-45.7 11.24-46.03.07-.41.56-2.91 2.11-5.46 2.36-3.85 5.93-5.88 10.32-5.88 4.88 0 8.97 5.59 15.75 14.85 9.27 12.67 21.98 30.03 40.86 36.32l.23.08c22.75 7.58 39.19 11.06 87.45 13.7l1.5.08z" style="fill:#ee494c"/>
    <path id="epitkit_svg__path44" d="M748.43 471.44c-11.56 0-18.18.26-22.14-1.48-3.4-1.49-4.82-3.76-7.05-7.65-2.51-4.38-6.17-23.34-9.39-40.08-2.47-12.81-4.8-24.91-6.9-32.59-1.62-5.91-5.25-13.52-13.37-16.22-4.81-1.6-8.89-.67-9.33-.56l-1.46.36 1.35 5.31 1.44-.34c.03-.01 2.92-.68 6.28.44 4.67 1.55 7.97 5.75 9.81 12.46 2.05 7.47 4.47 20.03 6.81 32.2 3.78 19.62 7.05 36.57 10.02 41.75 5.12 8.93 8.46 11.88 33.95 11.88H867v-5.49H748.43Z" style="fill:#aec81c"/>
    <path id="epitkit_svg__path46" d="M865.58 371.63c-.28-.01-28.21-.67-73.81 9.52-21.04 5.38-39.81 17.53-55.8 36.13-13.08 15.21-21.2 31.03-26.06 40.49-1.53 2.97-2.73 5.32-3.54 6.54-4.36 6.62-19.76 7.45-25.33 7.2l-1.5-.07-.25 5.49 1.5.07c.15.01.88.04 2.01.04 6.55 0 22.4-.95 28.16-9.7.97-1.47 2.17-3.8 3.84-7.07 4.74-9.23 12.67-24.68 25.33-39.4 15.23-17.72 33.06-29.29 52.93-34.37 44.74-10 72.09-9.37 72.36-9.37l1.5.04.16-5.49z" class="epitkit_svg__st6"/>
    <path id="epitkit_svg__path48" d="M867.75 475.18H682.7c-.59 0-1.19 0-1.79-.01v-86.7c0-4.31.16-8.65 0-12.95v-5.27c0-1.17-1.93-1.17-1.93 0v98.71c0 2.06-.04 4.13-.06 6.2-1.08 0-2.17 0-3.25.02h-.3c-1.24 0-1.24 1.81 0 1.81h3.53c-.01 1.64.01 3.28.07 4.92v.18c0 1.17 1.93 1.17 1.93 0v-5.1h177.27c2.34 0-6.04.05-3.7 0h13.27c1.25.01 1.25-1.81.01-1.81z" class="epitkit_svg__st3"/>
  </g>
  <g id="epitkit_svg__g2741">
    <g id="epitkit_svg__g1097" transform="translate(7.835 686.308) scale(.70539)">
      <path id="epitkit_svg__path1081" d="M444.8 306.7v-67h56.7v13.5h-41.7v13.1H500v13.4h-40.2v13.5h41.7v13.5z"/>
      <path id="epitkit_svg__path1083" d="M508.5 323.7v-67.1h13.9v13.7h1c1.8-9.6 8.2-14.7 20-14.7 15.4 0 24 10.2 24 26.1 0 15.9-8.4 26-23.5 26-11.6 0-18-5.7-19.7-14.5h-.7v30.5zm29.6-29.7c9.6 0 14.1-3.2 14.1-12.3 0-9.2-4.5-12.3-14-12.3-9.7 0-14.7 3.3-14.7 12.2v.8c0 8.6 5.2 11.6 14.6 11.6z"/>
      <path id="epitkit_svg__path1085" d="M573.2 251.5v-11.8h15v11.8zm0 55.2v-50.1h15v50.1z"/>
      <path id="epitkit_svg__path1087" d="m613.5 306.7-22.8-50.1h16.7l15 35.5h1l15.1-35.5h16.4L632 306.7Z"/>
      <path id="epitkit_svg__path1089" d="M652.9 281.7c0-16 11.3-26.1 27.8-26.1 16.4 0 27.3 8.6 27.3 24.3 0 1.8-.2 3.1-.4 4.8h-40.8c.4 7.7 4 11 13.7 11 8.9 0 12-2.3 12-6.6v-1h15v1.1c0 10.9-10.6 18.5-26.5 18.5-16.7 0-28.1-8.2-28.1-26zm14.1-4.9h26.6c-.4-6.6-4.4-9.5-13.2-9.5-8.9 0-12.7 3-13.4 9.5z"/>
      <path id="epitkit_svg__path1091" d="M713.8 306.7v-50.1h13.9v13.3h.9c1.4-8.1 6.7-14.3 16.8-14.3 11.2 0 15.8 7.7 15.8 17.5v8.3h-15v-5.2c0-5.5-2.2-7.9-8.3-7.9-6.7 0-9.1 3.1-9.1 9.4v29z"/>
      <path id="epitkit_svg__path1093" d="M764.6 289.5v-.3h15v.9c0 4.5 2.8 5.7 11.3 5.7 8 0 9.9-1.3 9.9-4.3 0-2.8-1.5-3.6-7.4-4.4l-14.1-1.7c-10-1.1-15.6-5.6-15.6-14 0-8.8 7.5-15.8 24.7-15.8 16.4 0 25.7 6.2 25.7 18.4v.3h-15v-.6c0-4.1-2-6.2-11.2-6.2-7.5 0-9.4 1.3-9.4 4.5 0 2.6 1.4 3.7 8 4.5l10.7 1.3c13.4 1.5 18.4 6 18.4 14.3 0 9.4-9.3 15.6-24.8 15.6-16.9 0-26.2-6.6-26.2-18.2z"/>
      <path id="epitkit_svg__path1095" d="M818.6 281.7c0-16 11.3-26.1 27.8-26.1 16.4 0 27.3 8.6 27.3 24.3 0 1.8-.2 3.1-.4 4.8h-40.8c.4 7.7 4 11 13.7 11 8.9 0 12-2.3 12-6.6v-1h15v1.1c0 10.9-10.6 18.5-26.5 18.5-16.7 0-28.1-8.2-28.1-26zm14.1-4.9h26.6c-.4-6.6-4.4-9.5-13.2-9.5-8.9 0-12.7 3-13.4 9.5z"/>
    </g>
    <g id="epitkit_svg__g1121" transform="translate(7.835 686.308) scale(.70539)">
      <path id="epitkit_svg__path1099" d="M686.8 345.4c-2.8 0-5 2.3-5 5.1 0 2.9 2.1 5 5 5 2.8 0 5-2.1 5-5-.1-2.9-2.2-5.1-5-5.1m18.7-13.2c-7.7 0-13.1 4.7-13.1 11.6 0 6.9 5.4 11.6 13.1 11.6 7.7 0 13.1-4.7 13.1-11.6 0-6.9-5.4-11.6-13.1-11.6m0 22.7c-2.5 0-3.3-2.2-3.3-11 0-9.1.8-11 3.3-11s3.3 1.9 3.3 11c0 8.8-.8 11-3.3 11m30.2-23c-2.9 0-5.9 2.4-6.3 5.5l-8.9-5.6-.1 23.7h9.1l.1-16.8c0-3.6 4-3.6 6.1-3.6zm15.9 17.1h-13.4l3.8-2.5c1.6.5 2.3.5 4.2.5 7.4 0 10.8-2.5 10.8-7.4 0-2.8-1.4-5.2-4.4-6.5l5.7-.1v-3.4l-6.7 3.1c-1.4-.5-3.2-.8-5.4-.8-7.3 0-10.7 3.2-10.7 7.3 0 3.1 1.8 5.3 4.7 6.6l-4.9 3.1 2.2 7.8h21.2c.1-.2.1-.4.1-.6v-2.8c-.5-2.6-2.6-4.3-7.2-4.3m-5.3-16.4c2.6 0 3 2.8 3 7 0 3.8-.4 6.8-3 6.8s-3-3-3-6.8c-.1-4.2.3-7 3-7m-114.7-.6c-2.2 0-5.9.6-8.8 1.6v3.3c1.9-2 5-4.3 7.7-4.3 2.6 0 2.9 2.3 2.9 4.1v4.9c-9 .1-13.1 3.2-13.1 7.7 0 4 2.8 5.9 6.7 5.9 4 0 6.6-2.5 6.9-5.1l8.7 5.3v-14.9c-.1-6.7-3.7-8.5-11-8.5m1.8 17.5c0 1-.7 2.3-2.2 2.3-1.7 0-2.5-1.6-2.5-4 0-2.6 1.3-5.1 4.7-5.7zm25.2-18.3h-3.4v-6.1l-8.8 6.1H643v1.8h3.3v22.4h8.9l.1-22.3h3.4v-1.9zm-48.9-8.2v13.5c-.7-2.7-3.3-4.5-6.6-4.5-5.8 0-9.6 4.8-9.6 11.8 0 6.9 3.3 11.5 9.4 11.5 4 0 6.3-2.1 6.8-5.2l9.1 5.4v-26.9zm0 25.5c0 2.1-1 3.6-2.8 3.6-3.4 0-3.6-3.7-3.6-8.6 0-5.4.6-8.4 3.6-8.4 1.8 0 2.7 1.5 2.7 3.6v9.8zm58.8-16.5c-2.2 0-5.9.6-8.8 1.6v3.3c1.9-2 5-4.3 7.7-4.3 2.6 0 2.9 2.3 2.9 4.1v4.9c-9 .1-13.1 3.2-13.1 7.7 0 4 2.8 5.9 6.7 5.9 4 0 6.6-2.5 6.9-5.1l8.7 5.3v-14.9c0-6.7-3.7-8.5-11-8.5m1.8 17.5c0 1-.7 2.3-2.2 2.3-1.7 0-2.5-1.6-2.5-4 0-2.6 1.3-5.1 4.7-5.7z" class="epitkit_svg__st0" style="clip-rule:evenodd;fill-rule:evenodd"/>
      <g id="epitkit_svg__g1119">
        <path id="epitkit_svg__path1101" d="M444.4 356.9V341h.9v3.3h.2c.6-2.1 2.4-3.6 5.2-3.6 3.7 0 5.8 2.6 5.8 6.1 0 3.5-2.1 6.1-5.9 6.1-2.6 0-4.6-1.5-5.2-3.7v7.5h-1zm6.1-4.8c3 0 5-1.3 5-5.2 0-3.8-2.1-5.1-4.9-5.1-3.1 0-5.1 1.9-5.1 5.1v.2c0 3.1 2 5 5 5z"/>
        <path id="epitkit_svg__path1103" d="M458.2 346.9c0-3.5 2.5-6.1 6.3-6.1s6.3 2.6 6.3 6.1c0 3.5-2.5 6.1-6.3 6.1s-6.3-2.6-6.3-6.1zm11.5 0c0-3.1-1.7-5.2-5.3-5.2-3.6 0-5.3 2-5.3 5.2 0 3.1 1.7 5.2 5.3 5.2 3.6 0 5.3-2.1 5.3-5.2z"/>
        <path id="epitkit_svg__path1105" d="m476 352.8-4-11.8h1.1l2.9 8.6.6 2.1h.1l.8-2.2 3.5-8.6h1.3l3.6 8.6.8 2.1h.1l.6-2.1 2.9-8.6h1.1l-4 11.8h-1.3l-3.4-8.4-.9-2.4h-.1l-.9 2.4-3.5 8.4H476Z"/>
        <path id="epitkit_svg__path1107" d="M492.7 346.9c0-3.5 2.3-6.1 6.1-6.1 3.3 0 5.7 2 5.7 5.4 0 .4 0 .8-.1 1.1h-10.7c.1 2.9 1.6 4.8 5 4.8 3 0 4.5-1.2 4.5-3.1v-.1h1.1v.1c0 2.4-2.4 4.1-5.5 4.1-3.8-.1-6.1-2.6-6.1-6.2zm1-.4h9.8v-.6c0-2.8-1.8-4.3-4.8-4.3-3.4.1-4.9 2-5 4.9z"/>
        <path id="epitkit_svg__path1109" d="M507 352.8V341h.9v3.2h.1c.4-1.8 1.7-3.5 4.2-3.5 2.7 0 4 2.1 4 4.2v.9h-1.1v-.8c0-2.3-.9-3.4-3.2-3.4-2.7 0-3.9 1.8-3.9 4.8v6.3h-1z"/>
        <path id="epitkit_svg__path1111" d="M517.7 346.9c0-3.5 2.3-6.1 6.1-6.1 3.3 0 5.7 2 5.7 5.4 0 .4 0 .8-.1 1.1h-10.7c.1 2.9 1.6 4.8 5 4.8 3 0 4.5-1.2 4.5-3.1v-.1h1.1v.1c0 2.4-2.4 4.1-5.5 4.1-3.8-.1-6.1-2.6-6.1-6.2zm1-.4h9.8v-.6c0-2.8-1.8-4.3-4.8-4.3-3.3.1-4.9 2-5 4.9z"/>
        <path id="epitkit_svg__path1113" d="M531.1 346.9c0-3.5 2.1-6.1 5.8-6.1 2.8 0 4.6 1.5 5.2 3.6h.1v-7.6h1.1v16.1h-.9v-3.6h-.1c-.6 2.4-2.6 3.8-5.2 3.8-3.9-.1-6-2.7-6-6.2zm6.1 5.2c3 0 5-1.9 5-4.9v-.2c0-3.2-1.9-5.1-5.1-5.1-2.8 0-4.9 1.3-4.9 5.1s2.1 5.1 5 5.1z"/>
        <path id="epitkit_svg__path1115" d="M555.8 352.8v-16.1h1.1v7.6h.1c.6-2 2.4-3.6 5.2-3.6 3.7 0 5.8 2.6 5.8 6.1 0 3.5-2 6.1-6 6.1-2.6 0-4.6-1.4-5.2-3.8h-.1v3.6h-.9zm6.1-.7c3 0 5-1.3 5-5.2 0-3.8-2-5.1-4.9-5.1-3.2 0-5.1 1.9-5.1 5.1v.2c0 3.1 2 5 5 5z"/>
        <path id="epitkit_svg__path1117" d="M570.3 356.9v-1h1.4c1.3 0 1.8-.4 2.3-1.5l.8-1.7-5.9-11.7h1.2l3.8 7.6 1.4 2.9h.1l1.4-2.9 3.6-7.6h1.1l-6.6 13.7c-.7 1.6-1.7 2.2-3.3 2.2z"/>
      </g>
    </g>
  </g>
  <g id="epitkit_svg__Cover" transform="translate(-75.89 -4.44)">
    <path id="epitkit_svg__path51" d="M680.88 961.67H399.12c-15.17 0-27.48-12.3-27.48-27.48v-71.64h336.72v71.64c0 15.18-12.3 27.48-27.48 27.48z" style="fill:none"/>
    <path id="epitkit_svg__path53" d="M540 1076.26 75.89 808.3V272.39L540 4.44l464.11 267.96v535.9ZM95.89 796.75 540 1053.16l444.11-256.41V283.94L540 27.53 95.89 283.94Z" class="epitkit_svg__st6"/>
    <path id="epitkit_svg__path55" d="M540 1058.94 90.74 799.56V280.79L540 21.41l449.26 259.38v518.76ZM100.74 793.78 540 1047.39l439.26-253.61V286.57L540 32.96 100.74 286.57Z" style="fill:#0e1e2d"/>
  </g>
</svg>
